<?xml version="1.0" standalone="no"?>
<!DOCTYPE svg PUBLIC "-//W3C//DTD SVG 20010904//EN"
 "http://www.w3.org/TR/2001/REC-SVG-20010904/DTD/svg10.dtd">
<svg version="1.0" xmlns="http://www.w3.org/2000/svg"
 width="700.000000pt" height="700.000000pt" viewBox="0 0 700.000000 700.000000"
 preserveAspectRatio="xMidYMid meet">
<metadata>
Created by potrace 1.11, written by Peter Selinger 2001-2013
</metadata>
<g transform="translate(0.000000,700.000000) scale(0.100000,-0.100000)"
fill="#000000" stroke="none">
<path d="M3390 6934 c-401 -73 -735 -362 -864 -748 -59 -177 -72 -417 -31
-586 63 -263 227 -501 458 -664 l67 -48 0 -369 0 -369 -70 -46 c-38 -25 -94
-72 -123 -104 l-53 -59 -750 -3 -749 -3 -62 -29 c-64 -29 -137 -97 -166 -152
-26 -51 -659 -1627 -678 -1689 -33 -105 -40 -258 -37 -740 3 -453 3 -461 26
-517 32 -80 99 -150 180 -190 l66 -33 231 -6 c126 -3 261 -12 299 -19 37 -6
81 -10 97 -8 20 3 29 0 29 -9 0 -11 395 -13 2295 -13 l2295 0 1 28 c1 18 3 21
6 8 4 -16 12 -18 77 -11 40 3 91 10 112 15 21 5 111 10 200 10 181 0 233 11
310 63 65 43 118 116 144 197 21 65 22 83 22 601 0 294 -3 550 -7 569 -8 37
-679 1637 -725 1730 -33 66 -112 143 -178 173 -47 22 -52 22 -730 25 l-683 3
-72 72 c-40 40 -96 86 -124 102 l-53 28 0 376 1 376 56 35 c120 75 272 240
351 381 47 84 98 224 116 319 17 88 23 272 11 356 -77 556 -555 969 -1115 963
-58 -1 -139 -7 -180 -15z m124 -205 c19 -1 18 -2 -4 -9 -21 -7 -22 -8 -5 -10
l20 -1 -20 -9 c-18 -8 -17 -9 8 -9 16 -1 26 -5 23 -10 -4 -5 6 -14 21 -19 l28
-10 -25 -1 c-16 -1 -21 -4 -13 -9 7 -5 -21 -13 -68 -20 -73 -10 -181 -43 -284
-86 l-40 -17 25 22 25 22 -27 -5 c-17 -3 -25 -1 -21 5 4 6 -3 8 -18 4 l-24 -6
25 19 c17 13 20 20 10 20 -9 0 -4 8 13 18 27 19 27 19 6 28 -19 9 -14 14 51
43 80 35 162 52 229 45 24 -2 53 -4 65 -5z m-234 -1773 c47 -20 104 -38 128
-42 l42 -6 0 -638 0 -638 23 -6 c41 -11 211 -6 280 9 85 18 181 68 215 114 25
32 27 42 30 163 2 70 6 128 8 128 12 0 128 -62 168 -89 48 -34 100 -93 115
-135 l11 -26 712 0 c699 0 712 0 754 -21 57 -27 88 -77 169 -267 379 -891 635
-1514 640 -1557 4 -28 2 -68 -4 -90 -10 -40 -80 -144 -119 -178 -54 -48 86
-46 -2913 -47 -2466 0 -2822 2 -2865 15 -27 8 -50 15 -52 15 -2 0 -2 -161 0
-358 3 -399 4 -405 70 -417 18 -4 858 -9 1867 -13 l1833 -7 -93 -67 -93 -68
-1759 0 c-1261 0 -1771 3 -1802 11 -66 17 -131 78 -150 142 -23 77 -22 1016 1
1119 9 39 123 327 253 642 131 314 280 674 331 799 51 126 106 246 122 268 57
79 -3 74 879 77 l786 2 18 41 c26 56 106 126 201 175 l79 41 3 478 c2 375 5
476 15 471 6 -3 50 -21 97 -40z"/>
<path d="M4307 3724 c-4 -4 -7 -17 -7 -29 0 -35 -55 -110 -112 -153 -210 -159
-579 -212 -905 -129 l-89 22 -63 -310 c-35 -170 -66 -316 -69 -323 -2 -8 5
-16 17 -19 11 -3 21 -9 21 -13 0 -5 8 -11 18 -13 13 -4 12 -5 -5 -6 -17 -1
-24 -10 -31 -43 -8 -41 -7 -44 20 -56 194 -85 639 -96 908 -21 280 78 473 241
472 398 0 54 -164 705 -175 695z"/>
<path d="M1385 2506 c-126 -25 -212 -65 -282 -129 -81 -74 -99 -140 -68 -244
30 -102 151 -197 305 -238 193 -53 437 -15 579 90 150 110 157 270 19 390
-130 112 -366 168 -553 131z"/>
</g>
</svg>
